HIERARCHY
ROOT Hips
{
	OFFSET 0.000000 97.167313 0.000000
	CHANNELS 6 Xposition Yposition Zposition Xrotation Yrotation Zrotation
	JOINT Spine
	{
		OFFSET 0.000000 13.784798 0.064400
		CHANNELS 3 Xrotation Yrotation Zrotation
		JOINT Spine1
		{
			OFFSET 0.000000 12.037903 0.404700
			CHANNELS 3 Xrotation Yrotation Zrotation
			JOINT Spine2
			{
				OFFSET 0.000000 17.795601 0.420200
				CHANNELS 3 Xrotation Yrotation Zrotation
				JOINT Neck
				{
					OFFSET 0.000000 39.131302 11.954600
					CHANNELS 3 Xrotation Yrotation Zrotation
					JOINT Head
					{
						OFFSET 0.000000 14.456192 15.627699
						CHANNELS 3 Xrotation Yrotation Zrotation
						JOINT HeadTop_End
						{
							OFFSET 0.000000 15.703506 7.603401
							CHANNELS 3 Xrotation Yrotation Zrotation
							End Site
							{
								OFFSET 0.000000 17.447403 0.000000
							}
						}
					}
				}
				JOINT LeftShoulder
				{
					OFFSET 17.399500 24.608795 1.168800
					CHANNELS 3 Xrotation Yrotation Zrotation
					JOINT LeftArm
					{
						OFFSET 18.980635 5.765305 1.818600
						CHANNELS 3 Xrotation Yrotation Zrotation
						JOINT LeftForeArm
						{
							OFFSET 49.290169 0.000000 0.000000
							CHANNELS 3 Xrotation Yrotation Zrotation
							JOINT LeftHand
							{
								OFFSET 31.562012 0.000000 0.000000
								CHANNELS 3 Xrotation Yrotation Zrotation
								JOINT LeftHandThumb1
								{
									OFFSET 6.133995 -4.388519 7.076070
									CHANNELS 3 Xrotation Yrotation Zrotation
									JOINT LeftHandThumb2
									{
										OFFSET 6.037666 -3.485840 3.485847
										CHANNELS 3 Xrotation Yrotation Zrotation
										JOINT LeftHandThumb3
										{
											OFFSET 6.496506 -3.750763 3.750761
											CHANNELS 3 Xrotation Yrotation Zrotation
											JOINT LeftHandThumb4
											{
												OFFSET 5.616882 -3.242905 3.242910
												CHANNELS 3 Xrotation Yrotation Zrotation
												End Site
												{
													OFFSET -1.254608 7.132141 0.375429
												}
											}
										}
									}
								}
								JOINT LeftHandPinky1
								{
									OFFSET 18.920792 -0.453171 -11.426712
									CHANNELS 3 Xrotation Yrotation Zrotation
									JOINT LeftHandPinky2
									{
										OFFSET 4.919586 0.000000 0.000000
										CHANNELS 3 Xrotation Yrotation Zrotation
										JOINT LeftHandPinky3
										{
											OFFSET 5.233047 0.000000 0.000000
											CHANNELS 3 Xrotation Yrotation Zrotation
											JOINT LeftHandPinky4
											{
												OFFSET 5.571716 0.000000 0.000000
												CHANNELS 3 Xrotation Yrotation Zrotation
												End Site
												{
													OFFSET -3.459808 4.342407 -0.466164
												}
											}
										}
									}
								}
								JOINT LeftHandRing1
								{
									OFFSET 22.726120 -0.094986 -6.500475
									CHANNELS 3 Xrotation Yrotation Zrotation
									JOINT LeftHandRing2
									{
										OFFSET 6.408615 0.000000 0.000000
										CHANNELS 3 Xrotation Yrotation Zrotation
										JOINT LeftHandRing3
										{
											OFFSET 6.150223 0.000000 0.000000
											CHANNELS 3 Xrotation Yrotation Zrotation
											JOINT LeftHandRing4
											{
												OFFSET 6.145386 0.000000 0.000000
												CHANNELS 3 Xrotation Yrotation Zrotation
												End Site
												{
													OFFSET -3.671402 4.923981 -0.202372
												}
											}
										}
									}
								}
								JOINT LeftHandMiddle1
								{
									OFFSET 23.373947 0.000000 0.000001
									CHANNELS 3 Xrotation Yrotation Zrotation
									JOINT LeftHandMiddle2
									{
										OFFSET 6.996567 0.000000 0.000000
										CHANNELS 3 Xrotation Yrotation Zrotation
										JOINT LeftHandMiddle3
										{
											OFFSET 7.015945 0.000000 0.000000
											CHANNELS 3 Xrotation Yrotation Zrotation
											JOINT LeftHandMiddle4
											{
												OFFSET 7.721573 0.000000 0.000000
												CHANNELS 3 Xrotation Yrotation Zrotation
												End Site
												{
													OFFSET -4.651108 6.158463 0.251582
												}
											}
										}
									}
								}
								JOINT LeftHandIndex1
								{
									OFFSET 21.310577 -0.490082 6.209344
									CHANNELS 3 Xrotation Yrotation Zrotation
									JOINT LeftHandIndex2
									{
										OFFSET 7.536453 0.000000 0.000000
										CHANNELS 3 Xrotation Yrotation Zrotation
										JOINT LeftHandIndex3
										{
											OFFSET 7.512344 0.000000 0.000000
											CHANNELS 3 Xrotation Yrotation Zrotation
											JOINT LeftHandIndex4
											{
												OFFSET 10.212402 0.000000 0.000001
												CHANNELS 3 Xrotation Yrotation Zrotation
												End Site
												{
													OFFSET -5.180801 8.690506 1.388433
												}
											}
										}
									}
								}
							}
						}
					}
				}
				JOINT RightShoulder
				{
					OFFSET -17.399500 24.608795 1.168800
					CHANNELS 3 Xrotation Yrotation Zrotation
					JOINT RightArm
					{
						OFFSET -18.980635 5.765305 1.818600
						CHANNELS 3 Xrotation Yrotation Zrotation
						JOINT RightForeArm
						{
							OFFSET -49.290169 0.000000 0.000000
							CHANNELS 3 Xrotation Yrotation Zrotation
							JOINT RightHand
							{
								OFFSET -31.562012 0.000000 0.000000
								CHANNELS 3 Xrotation Yrotation Zrotation
								JOINT RightHandThumb1
								{
									OFFSET -6.133995 -4.388519 7.076070
									CHANNELS 3 Xrotation Yrotation Zrotation
									JOINT RightHandThumb2
									{
										OFFSET -6.037666 -3.485840 3.485847
										CHANNELS 3 Xrotation Yrotation Zrotation
										JOINT RightHandThumb3
										{
											OFFSET -6.496506 -3.750763 3.750761
											CHANNELS 3 Xrotation Yrotation Zrotation
											JOINT RightHandThumb4
											{
												OFFSET -5.616882 -3.242905 3.242910
												CHANNELS 3 Xrotation Yrotation Zrotation
												End Site
												{
													OFFSET 1.254608 7.132141 0.375429
												}
											}
										}
									}
								}
								JOINT RightHandIndex1
								{
									OFFSET -21.310577 -0.490082 6.209344
									CHANNELS 3 Xrotation Yrotation Zrotation
									JOINT RightHandIndex2
									{
										OFFSET -7.536453 0.000000 0.000000
										CHANNELS 3 Xrotation Yrotation Zrotation
										JOINT RightHandIndex3
										{
											OFFSET -7.512344 0.000000 0.000000
											CHANNELS 3 Xrotation Yrotation Zrotation
											JOINT RightHandIndex4
											{
												OFFSET -10.212402 0.000000 0.000001
												CHANNELS 3 Xrotation Yrotation Zrotation
												End Site
												{
													OFFSET 5.180801 8.690506 1.388433
												}
											}
										}
									}
								}
								JOINT RightHandMiddle1
								{
									OFFSET -23.373947 0.000000 0.000001
									CHANNELS 3 Xrotation Yrotation Zrotation
									JOINT RightHandMiddle2
									{
										OFFSET -6.996567 0.000000 0.000000
										CHANNELS 3 Xrotation Yrotation Zrotation
										JOINT RightHandMiddle3
										{
											OFFSET -7.015945 0.000000 0.000000
											CHANNELS 3 Xrotation Yrotation Zrotation
											JOINT RightHandMiddle4
											{
												OFFSET -7.721573 0.000000 0.000000
												CHANNELS 3 Xrotation Yrotation Zrotation
												End Site
												{
													OFFSET 4.651108 6.158463 0.251582
												}
											}
										}
									}
								}
								JOINT RightHandRing1
								{
									OFFSET -22.726120 -0.094986 -6.500475
									CHANNELS 3 Xrotation Yrotation Zrotation
									JOINT RightHandRing2
									{
										OFFSET -6.408615 0.000000 0.000000
										CHANNELS 3 Xrotation Yrotation Zrotation
										JOINT RightHandRing3
										{
											OFFSET -6.150223 0.000000 0.000000
											CHANNELS 3 Xrotation Yrotation Zrotation
											JOINT RightHandRing4
											{
												OFFSET -6.145386 0.000000 0.000000
												CHANNELS 3 Xrotation Yrotation Zrotation
												End Site
												{
													OFFSET 3.671402 4.923981 -0.202372
												}
											}
										}
									}
								}
								JOINT RightHandPinky1
								{
									OFFSET -18.920792 -0.453171 -11.426712
									CHANNELS 3 Xrotation Yrotation Zrotation
									JOINT RightHandPinky2
									{
										OFFSET -4.919586 0.000000 0.000000
										CHANNELS 3 Xrotation Yrotation Zrotation
										JOINT RightHandPinky3
										{
											OFFSET -5.233047 0.000000 0.000000
											CHANNELS 3 Xrotation Yrotation Zrotation
											JOINT RightHandPinky4
											{
												OFFSET -5.571716 0.000000 0.000000
												CHANNELS 3 Xrotation Yrotation Zrotation
												End Site
												{
													OFFSET 3.459808 4.342407 -0.466164
												}
											}
										}
									}
								}
							}
						}
					}
				}
			}
		}
	}
	JOINT LeftUpLeg
	{
		OFFSET 19.899099 -7.885101 -3.429500
		CHANNELS 3 Xrotation Yrotation Zrotation
		JOINT LeftLeg
		{
			OFFSET 1.745560 -36.997807 10.304700
			CHANNELS 3 Xrotation Yrotation Zrotation
			JOINT LeftFoot
			{
				OFFSET -1.745558 -29.803308 -13.615400
				CHANNELS 3 Xrotation Yrotation Zrotation
				JOINT LeftToeBase
				{
					OFFSET 1.181900 -18.539904 15.226099
					CHANNELS 3 Xrotation Yrotation Zrotation
					JOINT LeftToe_End
					{
						OFFSET -0.863701 1.402801 16.534700
						CHANNELS 3 Xrotation Yrotation Zrotation
						End Site
						{
							OFFSET 0.000000 16.616566 0.000000
						}
					}
				}
			}
		}
	}
	JOINT RightUpLeg
	{
		OFFSET -19.899099 -7.885101 -3.429500
		CHANNELS 3 Xrotation Yrotation Zrotation
		JOINT RightLeg
		{
			OFFSET -1.745560 -36.997807 10.304700
			CHANNELS 3 Xrotation Yrotation Zrotation
			JOINT RightFoot
			{
				OFFSET 1.745558 -29.803308 -13.615400
				CHANNELS 3 Xrotation Yrotation Zrotation
				JOINT RightToeBase
				{
					OFFSET -1.181900 -18.539904 15.226099
					CHANNELS 3 Xrotation Yrotation Zrotation
					JOINT RightToe_End
					{
						OFFSET 0.863701 1.402801 16.534700
						CHANNELS 3 Xrotation Yrotation Zrotation
						End Site
						{
							OFFSET 0.000000 16.616566 0.000000
						}
					}
				}
			}
		}
	}
}
MOTION
Frames: 5
Frame Time: 0.033333
-0.198714 87.357086 -3.274380 14.641487 -20.906710 -3.058566 7.106968 0.321721 -4.551817 1.576186 -0.089034 1.605177 1.605626 0.195500 1.675551 -14.989641 -1.440560 1.617721 -3.071633 -3.666858 14.073145 -0.000000 -0.000001 -0.000000 1.108932 -8.233020 5.649601 -53.296553 -9.986787 -33.828783 5.177902 -50.461598 11.285802 -37.851887 8.082022 3.560374 17.551600 -5.699201 -12.932284 10.850493 26.127714 8.644796 20.926907 51.115889 0.218785 0.000000 0.000002 0.000000 10.030074 13.637020 -84.750244 0.867779 0.054454 -64.595585 1.132594 1.266257 -55.016286 -0.000001 0.000000 -0.000002 8.576389 2.157217 -75.147230 -0.199443 1.000182 -57.855343 0.452846 1.749739 -53.581318 -0.000001 0.000001 0.000002 7.504734 1.174489 -63.778503 1.816276 1.475226 -64.567957 0.130366 -0.912170 -43.272482 -0.000000 -0.000001 0.000002 13.980894 1.201499 -55.004384 0.361031 1.154026 -65.441941 1.972233 2.153078 -57.664917 -0.000000 0.000001 0.000002 4.552593 9.193561 1.086979 -4.026631 5.116418 64.535411 12.796084 23.492714 -3.975179 -6.223248 7.475235 -1.221723 15.783278 -2.720591 -17.206626 -2.196647 -31.120606 7.358906 -6.566797 -4.138109 2.407592 0.000002 -0.000001 0.000002 2.832190 -4.145932 3.728769 -2.012388 -2.453855 13.904702 -1.639026 -4.778721 9.366235 -0.000000 -0.000007 -0.000002 -1.504334 -6.150424 10.270223 0.509904 -5.098253 23.603998 -0.688521 -1.265512 12.715954 0.000001 0.000000 -0.000008 -2.814213 -8.267701 10.031394 4.331315 -3.757096 31.482579 2.334209 -2.970693 13.789732 -0.000000 0.000001 -0.000005 -7.330348 -9.391864 16.737298 10.715850 -2.554382 28.559652 6.411112 -3.074521 9.047761 0.000001 -0.000002 0.000002 -39.048656 16.497444 31.042612 41.744986 20.366885 -12.132867 -13.288776 8.096131 -8.251811 -2.176715 0.099597 -0.056051 0.000000 0.000002 0.000000 -24.562574 -5.399334 -0.898900 20.422389 6.646796 0.860320 -9.480408 -2.705311 4.470536 -0.383178 -2.861810 1.792518 -0.000000 0.000000 0.000000 
-0.564896 87.328339 -2.995928 14.114880 -24.642457 -2.044279 7.088120 0.290219 -4.372767 1.530305 -0.210405 1.624668 1.557248 0.071455 1.692470 -14.455990 0.444452 1.212940 -2.941156 -2.155594 14.085344 -0.000000 0.000001 0.000001 1.017261 -8.505209 4.479310 -53.100295 -11.155539 -34.211830 5.148778 -49.940977 11.244949 -37.055754 7.624366 4.514277 17.551595 -5.699202 -12.932284 10.850492 26.127714 8.644799 20.926911 51.115889 0.218783 0.000001 0.000001 0.000000 10.030078 13.637022 -84.750230 0.867775 0.054461 -64.595592 1.132604 1.266261 -55.016286 -0.000001 0.000001 -0.000004 8.576389 2.157218 -75.147230 -0.199444 1.000182 -57.855343 0.452845 1.749738 -53.581321 -0.000002 0.000000 0.000007 7.504736 1.174489 -63.778510 1.816274 1.475228 -64.567950 0.130366 -0.912168 -43.272486 -0.000003 -0.000001 0.000002 13.980892 1.201499 -55.004377 0.361031 1.154023 -65.441941 1.972236 2.153080 -57.664917 -0.000001 -0.000000 0.000001 4.462208 8.612883 1.356150 -3.898379 4.815869 63.941007 12.787634 23.251902 -4.052061 -5.999032 7.277203 -0.762843 15.783276 -2.720590 -17.206616 -2.196656 -31.120599 7.358912 -6.566798 -4.138118 2.407594 -0.000000 -0.000001 -0.000000 2.800325 -4.105284 3.541825 -2.017998 -2.450634 13.720003 -1.645803 -4.775874 9.184651 -0.000001 -0.000005 0.000001 -1.522769 -6.121073 10.110218 0.504429 -5.097950 23.444177 -0.690784 -1.263818 12.556741 0.000000 0.000001 -0.000006 -2.824093 -8.260206 9.896262 4.328980 -3.760775 31.347986 2.332237 -2.973072 13.654883 -0.000000 -0.000001 -0.000003 -7.331575 -9.390564 16.640515 10.715522 -2.553853 28.464007 6.410635 -3.073936 8.952117 -0.000000 0.000002 0.000001 -37.083436 17.682248 32.416433 41.085896 18.542640 -13.353226 -13.881061 6.597156 -8.159645 -2.101989 0.103859 -0.102786 0.000000 0.000004 0.000000 -25.343931 -3.877468 -0.684022 21.038752 7.709370 0.313823 -8.714744 -2.161605 5.145707 -0.493643 -2.200669 0.993276 0.000000 -0.000001 -0.000000 
-0.950548 87.209930 -2.691227 13.713517 -28.432238 -1.131819 7.038089 0.143049 -4.203590 1.525429 -0.330480 1.662695 1.550315 -0.046229 1.732381 -14.024068 1.630397 1.204413 -2.055708 -1.044963 14.496557 -0.000000 0.000000 -0.000001 0.884340 -8.493742 3.498449 -52.885226 -12.106680 -35.076061 5.153913 -49.733210 11.184947 -36.054704 6.999896 5.089446 17.551599 -5.699201 -12.932284 10.850505 26.127714 8.644795 20.926911 51.115889 0.218785 0.000000 0.000001 0.000001 10.030076 13.637021 -84.750237 0.867770 0.054449 -64.595578 1.132596 1.266266 -55.016272 -0.000000 0.000002 -0.000005 8.576389 2.157218 -75.147230 -0.199445 1.000182 -57.855336 0.452845 1.749737 -53.581318 -0.000002 0.000000 -0.000000 7.504738 1.174489 -63.778503 1.816273 1.475229 -64.567950 0.130364 -0.912168 -43.272486 0.000001 0.000002 0.000009 13.980898 1.201500 -55.004377 0.361033 1.154027 -65.441941 1.972232 2.153081 -57.664924 -0.000003 0.000001 0.000001 4.488350 7.957592 1.562895 -3.910729 4.551488 63.378821 12.605109 23.197807 -4.161644 -5.135958 6.877523 -0.260824 15.783276 -2.720588 -17.206625 -2.196655 -31.120606 7.358909 -6.566800 -4.138111 2.407592 0.000002 0.000003 -0.000006 2.768343 -4.064335 3.383542 -2.023199 -2.447089 13.563875 -1.652205 -4.773214 9.031659 -0.000001 -0.000001 -0.000002 -1.539952 -6.091032 9.978999 0.499379 -5.097766 23.312972 -0.692842 -1.262425 12.426215 0.000002 0.000002 -0.000004 -2.836505 -8.253575 9.789921 4.326523 -3.764835 31.242576 2.330221 -2.973797 13.549183 -0.000000 -0.000001 -0.000005 -7.333265 -9.389392 16.572918 10.715372 -2.553552 28.397685 6.410364 -3.073604 8.885748 0.000001 -0.000002 -0.000001 -35.520832 18.692727 33.911237 40.178714 15.896955 -14.456737 -14.306300 4.451599 -8.016886 -1.907895 0.105143 -0.167079 -0.000000 -0.000001 0.000000 -26.290402 -2.186462 -0.296989 21.784581 8.923146 -0.197413 -7.886540 -1.734213 5.875341 -0.591177 -1.731393 0.411630 -0.000000 -0.000002 -0.000000 
-1.359537 87.023285 -2.383715 13.475180 -32.126474 -0.293016 6.975654 -0.048421 -4.022759 1.561573 -0.480682 1.676331 1.584360 -0.196849 1.745105 -13.902498 0.577756 1.419519 -0.033059 -1.884692 16.005780 0.000000 0.000002 0.000000 0.761650 -8.537544 2.736485 -52.704540 -12.854256 -36.205521 5.155316 -49.772811 11.136318 -34.554887 8.565314 2.730017 17.551597 -5.699198 -12.932284 10.850497 26.127714 8.644795 20.926909 51.115893 0.218781 0.000001 -0.000000 -0.000001 10.030076 13.637017 -84.750244 0.867786 0.054447 -64.595578 1.132590 1.266283 -55.016279 -0.000004 0.000001 -0.000004 8.576389 2.157218 -75.147230 -0.199443 1.000184 -57.855336 0.452846 1.749737 -53.581314 -0.000003 -0.000001 0.000003 7.504735 1.174490 -63.778510 1.816275 1.475228 -64.567950 0.130368 -0.912170 -43.272482 0.000000 0.000000 0.000004 13.980899 1.201497 -55.004377 0.361033 1.154027 -65.441941 1.972235 2.153077 -57.664924 0.000002 0.000002 -0.000003 4.668187 7.357020 1.608689 -4.245430 3.979845 63.109643 12.391011 23.196653 -4.327474 -3.989402 6.534609 -0.047944 15.783276 -2.720590 -17.206625 -2.196655 -31.120599 7.358909 -6.566799 -4.138107 2.407598 -0.000002 -0.000004 -0.000003 2.736307 -4.023136 3.256010 -2.027727 -2.443402 13.438642 -1.659275 -4.770633 8.909457 0.000002 0.000004 -0.000001 -1.555790 -6.060359 9.878740 0.494799 -5.097686 23.212620 -0.694712 -1.261356 12.326475 -0.000000 -0.000000 -0.000004 -2.847108 -8.248067 9.715081 4.324114 -3.765971 31.168407 2.328276 -2.974381 13.474737 -0.000001 -0.000000 0.000000 -7.336607 -9.388288 16.536358 10.715418 -2.553510 28.362540 6.410326 -3.073555 8.850743 -0.000001 -0.000002 0.000002 -34.309300 19.430638 35.128448 39.276894 13.135555 -15.129851 -14.740178 2.215726 -7.948802 -1.535478 0.093990 -0.232915 0.000000 0.000002 0.000000 -27.328751 -0.425941 0.450329 22.695563 10.119933 -0.898367 -7.346381 -1.312352 6.277807 -0.673222 -1.560868 0.171256 0.000000 0.000002 0.000000 
-1.786386 86.761307 -2.102745 13.509397 -35.546190 0.568220 6.960213 -0.238297 -3.900244 1.595685 -0.656975 1.695353 1.614817 -0.371746 1.763141 -14.303985 -4.110226 1.974822 3.458266 -5.351313 18.452683 0.000001 -0.000001 0.000000 0.471900 -8.992531 1.982073 -52.226700 -13.652536 -37.118192 5.195304 -50.079791 11.143625 -32.449354 8.476146 1.040074 17.551599 -5.699205 -12.932286 10.850497 26.127710 8.644795 20.926907 51.115889 0.218782 -0.000000 0.000003 -0.000003 10.030075 13.637021 -84.750244 0.867774 0.054453 -64.595585 1.132594 1.266261 -55.016293 0.000001 0.000002 -0.000002 8.576386 2.157217 -75.147230 -0.199444 1.000182 -57.855336 0.452847 1.749737 -53.581314 -0.000003 -0.000001 0.000003 7.504734 1.174490 -63.778510 1.816275 1.475228 -64.567957 0.130365 -0.912171 -43.272482 0.000000 0.000000 0.000001 13.980895 1.201498 -55.004381 0.361033 1.154026 -65.441948 1.972238 2.153075 -57.664917 -0.000002 0.000002 -0.000005 4.851259 6.616424 1.498223 -4.829393 3.226831 63.229916 12.168479 22.997872 -4.455767 -3.217081 6.545276 0.114446 15.783276 -2.720591 -17.206621 -2.196658 -31.120599 7.358912 -6.566796 -4.138113 2.407593 0.000002 0.000000 0.000004 2.704252 -3.981742 3.161452 -2.031713 -2.440449 13.346258 -1.666524 -4.768204 8.820242 -0.000000 -0.000003 0.000001 -1.570258 -6.029055 9.811589 0.488991 -5.097862 23.145202 -0.696284 -1.260636 12.259641 -0.000000 0.000000 -0.000006 -2.855841 -8.242006 9.673849 4.321578 -3.767063 31.127727 2.326439 -2.974944 13.433664 0.000000 0.000000 -0.000008 -7.338236 -9.387415 16.533275 10.715667 -2.553742 28.360890 6.410524 -3.073819 8.849027 0.000001 0.000001 -0.000001 -33.392487 19.892561 35.956421 38.672934 10.729573 -15.423950 -15.416902 0.217527 -8.083132 -1.087819 0.065964 -0.284152 0.000000 -0.000001 -0.000000 -28.538200 1.234501 1.204656 23.702804 11.204566 -1.365485 -6.981685 -0.849190 6.423093 -0.751579 -1.502772 0.054147 -0.000000 -0.000000 -0.000000 
